HIERARCHY
ROOT Hips
{
	OFFSET 0.000000 0.000000 0.000000
	CHANNELS 6 Xposition Yposition Zposition Zrotation Yrotation Xrotation 
	JOINT Spine1
	{
		OFFSET -0.013727 5.003763 -0.053727
		CHANNELS 3 Zrotation Yrotation Xrotation
		JOINT Spine2
		{
			OFFSET -0.000000 7.125302 -0.029825
			CHANNELS 3 Zrotation Yrotation Xrotation
			JOINT Chest
			{
				OFFSET -0.000001 7.550064 -0.815971
				CHANNELS 3 Zrotation Yrotation Xrotation
				JOINT Neck1
				{
					OFFSET -0.181676 26.311296 -0.553349
					CHANNELS 3 Zrotation Yrotation Xrotation
					JOINT Neck2
					{
						OFFSET -0.000003 7.709399 2.302586
						CHANNELS 3 Zrotation Yrotation Xrotation
						JOINT Head
						{
							OFFSET -0.000005 6.128913 1.953709
							CHANNELS 3 Zrotation Yrotation Xrotation
							JOINT HeadEnd
							{
								OFFSET 0.003598 16.065401 -1.835379
								CHANNELS 3 Zrotation Yrotation Xrotation
								End Site
								{
									OFFSET 0.000000 0.000000 0.000000
								}
							}
							JOINT Jaw
							{
								OFFSET 0.002637 0.475592 3.094941
								CHANNELS 3 Zrotation Yrotation Xrotation
								End Site
								{
									OFFSET 0.000000 0.000000 0.000000
								}
							}
							JOINT LeftEye
							{
								OFFSET 3.206381 5.380207 7.586883
								CHANNELS 3 Zrotation Yrotation Xrotation
								End Site
								{
									OFFSET 0.000000 0.000000 0.000000
								}
							}
							JOINT RightEye
							{
								OFFSET -3.222440 5.361867 7.558232
								CHANNELS 3 Zrotation Yrotation Xrotation
								End Site
								{
									OFFSET 0.000000 0.000000 0.000000
								}
							}
						}
					}
				}
				JOINT LeftShoulder
				{
					OFFSET 1.621652 23.237165 5.113413
					CHANNELS 3 Zrotation Yrotation Xrotation
					JOINT LeftArm
					{
						OFFSET 14.919845 0.000000 -5.502326
						CHANNELS 3 Zrotation Yrotation Xrotation
						JOINT LeftForeArm
						{
							OFFSET 28.739309 0.000003 -0.002588
							CHANNELS 3 Zrotation Yrotation Xrotation
							JOINT LeftHand
							{
								OFFSET 27.093979 -0.000003 0.002609
								CHANNELS 3 Zrotation Yrotation Xrotation
								JOINT LeftHandThumb1
								{
									OFFSET 2.276480 -1.392046 3.191413
									CHANNELS 3 Zrotation Yrotation Xrotation
									JOINT LeftHandThumb2
									{
										OFFSET 4.012841 -1.828126 1.641655
										CHANNELS 3 Zrotation Yrotation Xrotation
										JOINT LeftHandThumb3
										{
											OFFSET 2.798516 0.000001 -0.000003
											CHANNELS 3 Zrotation Yrotation Xrotation
											JOINT LeftHandThumbEnd
											{
												OFFSET 3.180791 -0.000001 0.000003
												CHANNELS 3 Zrotation Yrotation Xrotation
												End Site
												{
													OFFSET 0.000000 0.000000 0.000000
												}
											}
										}
									}
								}
								JOINT LeftHandIndex1
								{
									OFFSET 3.247553 -0.531998 2.296169
									CHANNELS 3 Zrotation Yrotation Xrotation
									JOINT LeftHandIndex2
									{
										OFFSET 6.364580 0.012062 0.178600
										CHANNELS 3 Zrotation Yrotation Xrotation
										JOINT LeftHandIndex3
										{
											OFFSET 3.662366 0.000001 -0.000000
											CHANNELS 3 Zrotation Yrotation Xrotation
											JOINT LeftHandIndex4
											{
												OFFSET 2.329243 0.000003 0.000004
												CHANNELS 3 Zrotation Yrotation Xrotation
												JOINT LeftHandIndexEnd
												{
													OFFSET 2.759619 -0.180539 -0.113024
													CHANNELS 3 Zrotation Yrotation Xrotation
													End Site
													{
														OFFSET 0.000000 0.000000 0.000000
													}
												}
											}
										}
									}
								}
								JOINT LeftHandMiddle1
								{
									OFFSET 3.163499 0.240982 1.000332
									CHANNELS 3 Zrotation Yrotation Xrotation
									JOINT LeftHandMiddle2
									{
										OFFSET 6.190778 -0.259276 -1.002549
										CHANNELS 3 Zrotation Yrotation Xrotation
										JOINT LeftHandMiddle3
										{
											OFFSET 4.356523 -0.000006 0.000000
											CHANNELS 3 Zrotation Yrotation Xrotation
											JOINT LeftHandMiddle4
											{
												OFFSET 2.996875 -0.000007 0.000001
												CHANNELS 3 Zrotation Yrotation Xrotation
												JOINT LeftHandMiddleEnd
												{
													OFFSET 2.304294 -0.294571 -0.031740
													CHANNELS 3 Zrotation Yrotation Xrotation
													End Site
													{
														OFFSET 0.000000 0.000000 0.000000
													}
												}
											}
										}
									}
								}
								JOINT LeftHandRing1
								{
									OFFSET 2.882642 -0.053650 -0.322543
									CHANNELS 3 Zrotation Yrotation Xrotation
									JOINT LeftHandRing2
									{
										OFFSET 5.854543 -0.486203 -1.373841
										CHANNELS 3 Zrotation Yrotation Xrotation
										JOINT LeftHandRing3
										{
											OFFSET 4.350581 0.000001 0.000003
											CHANNELS 3 Zrotation Yrotation Xrotation
											JOINT LeftHandRing4
											{
												OFFSET 2.651324 0.000008 0.000003
												CHANNELS 3 Zrotation Yrotation Xrotation
												JOINT LeftHandRingEnd
												{
													OFFSET 1.936111 0.077685 -0.000070
													CHANNELS 3 Zrotation Yrotation Xrotation
													End Site
													{
														OFFSET 0.000000 0.000000 0.000000
													}
												}
											}
										}
									}
								}
								JOINT LeftHandPinky1
								{
									OFFSET 2.865499 -0.310004 -1.600378
									CHANNELS 3 Zrotation Yrotation Xrotation
									JOINT LeftHandPinky2
									{
										OFFSET 5.087853 -1.331142 -1.771231
										CHANNELS 3 Zrotation Yrotation Xrotation
										JOINT LeftHandPinky3
										{
											OFFSET 3.070975 0.000003 0.000001
											CHANNELS 3 Zrotation Yrotation Xrotation
											JOINT LeftHandPinky4
											{
												OFFSET 1.549668 0.000000 0.000001
												CHANNELS 3 Zrotation Yrotation Xrotation
												JOINT LeftHandPinkyEnd
												{
													OFFSET 1.944895 -0.157802 0.057219
													CHANNELS 3 Zrotation Yrotation Xrotation
													End Site
													{
														OFFSET 0.000000 0.000000 0.000000
													}
												}
											}
										}
									}
								}
							}
						}
					}
				}
				JOINT RightShoulder
				{
					OFFSET -1.380118 23.180309 5.214158
					CHANNELS 3 Zrotation Yrotation Xrotation
					JOINT RightArm
					{
						OFFSET -15.037197 0.000012 -5.545604
						CHANNELS 3 Zrotation Yrotation Xrotation
						JOINT RightForeArm
						{
							OFFSET -28.736639 0.000003 -0.002597
							CHANNELS 3 Zrotation Yrotation Xrotation
							JOINT RightHand
							{
								OFFSET -27.133617 -0.000000 0.002613
								CHANNELS 3 Zrotation Yrotation Xrotation
								JOINT RightHandThumb1
								{
									OFFSET -2.274036 -1.383990 3.163128
									CHANNELS 3 Zrotation Yrotation Xrotation
									JOINT RightHandThumb2
									{
										OFFSET -4.011428 -1.827468 1.640914
										CHANNELS 3 Zrotation Yrotation Xrotation
										JOINT RightHandThumb3
										{
											OFFSET -2.794934 -0.000003 -0.000003
											CHANNELS 3 Zrotation Yrotation Xrotation
											JOINT RightHandThumbEnd
											{
												OFFSET -3.183855 0.000003 -0.000000
												CHANNELS 3 Zrotation Yrotation Xrotation
												End Site
												{
													OFFSET 0.000000 0.000000 0.000000
												}
											}
										}
									}
								}
								JOINT RightHandIndex1
								{
									OFFSET -3.253269 -0.520060 2.282866
									CHANNELS 3 Zrotation Yrotation Xrotation
									JOINT RightHandIndex2
									{
										OFFSET -6.341918 0.012473 0.178265
										CHANNELS 3 Zrotation Yrotation Xrotation
										JOINT RightHandIndex3
										{
											OFFSET -3.654875 -0.000009 -0.000001
											CHANNELS 3 Zrotation Yrotation Xrotation
											JOINT RightHandIndex4
											{
												OFFSET -2.327586 0.000000 0.000000
												CHANNELS 3 Zrotation Yrotation Xrotation
												JOINT RightHandIndexEnd
												{
													OFFSET -2.761789 -0.180657 -0.113078
													CHANNELS 3 Zrotation Yrotation Xrotation
													End Site
													{
														OFFSET 0.000000 0.000000 0.000000
													}
												}
											}
										}
									}
								}
								JOINT RightHandMiddle1
								{
									OFFSET -3.168106 0.246593 1.001030
									CHANNELS 3 Zrotation Yrotation Xrotation
									JOINT RightHandMiddle2
									{
										OFFSET -6.180830 -0.258836 -1.000896
										CHANNELS 3 Zrotation Yrotation Xrotation
										JOINT RightHandMiddle3
										{
											OFFSET -4.348905 -0.000000 -0.000001
											CHANNELS 3 Zrotation Yrotation Xrotation
											JOINT RightHandMiddle4
											{
												OFFSET -3.000243 -0.000003 -0.000003
												CHANNELS 3 Zrotation Yrotation Xrotation
												JOINT RightHandMiddleEnd
												{
													OFFSET -2.302518 -0.294371 -0.031706
													CHANNELS 3 Zrotation Yrotation Xrotation
													End Site
													{
														OFFSET 0.000000 0.000000 0.000000
													}
												}
											}
										}
									}
								}
								JOINT RightHandRing1
								{
									OFFSET -2.885693 -0.067952 -0.308858
									CHANNELS 3 Zrotation Yrotation Xrotation
									JOINT RightHandRing2
									{
										OFFSET -5.854197 -0.486132 -1.373732
										CHANNELS 3 Zrotation Yrotation Xrotation
										JOINT RightHandRing3
										{
											OFFSET -4.338814 -0.000003 -0.000000
											CHANNELS 3 Zrotation Yrotation Xrotation
											JOINT RightHandRing4
											{
												OFFSET -2.654906 -0.000004 0.000003
												CHANNELS 3 Zrotation Yrotation Xrotation
												JOINT RightHandRingEnd
												{
													OFFSET -1.933570 0.077523 -0.000052
													CHANNELS 3 Zrotation Yrotation Xrotation
													End Site
													{
														OFFSET 0.000000 0.000000 0.000000
													}
												}
											}
										}
									}
								}
								JOINT RightHandPinky1
								{
									OFFSET -2.866429 -0.342798 -1.584145
									CHANNELS 3 Zrotation Yrotation Xrotation
									JOINT RightHandPinky2
									{
										OFFSET -5.091370 -1.332054 -1.772385
										CHANNELS 3 Zrotation Yrotation Xrotation
										JOINT RightHandPinky3
										{
											OFFSET -3.062666 -0.000007 0.000000
											CHANNELS 3 Zrotation Yrotation Xrotation
											JOINT RightHandPinky4
											{
												OFFSET -1.546526 0.000005 -0.000003
												CHANNELS 3 Zrotation Yrotation Xrotation
												JOINT RightHandPinkyEnd
												{
													OFFSET -1.945122 -0.157722 0.057211
													CHANNELS 3 Zrotation Yrotation Xrotation
													End Site
													{
														OFFSET 0.000000 0.000000 0.000000
													}
												}
											}
										}
									}
								}
							}
						}
					}
				}
			}
		}
	}
	JOINT LeftLeg
	{
		OFFSET 10.043214 -8.434526 2.595655
		CHANNELS 3 Zrotation Yrotation Xrotation
		JOINT LeftShin
		{
			OFFSET -0.000001 -43.221752 -0.802913
			CHANNELS 3 Zrotation Yrotation Xrotation
			JOINT LeftFoot
			{
				OFFSET 0.000001 -42.155094 -3.481523
				CHANNELS 3 Zrotation Yrotation Xrotation
				JOINT LeftToeBase
				{
					OFFSET 0.000000 -5.059475 13.231529
					CHANNELS 3 Zrotation Yrotation Xrotation
					JOINT LeftToeEnd
					{
						OFFSET -0.009607 -1.647616 6.513017
						CHANNELS 3 Zrotation Yrotation Xrotation
						End Site
						{
							OFFSET 0.000000 0.000000 0.000000
						}
					}
				}
			}
		}
	}
	JOINT RightLeg
	{
		OFFSET -10.047277 -8.295259 2.620317
		CHANNELS 3 Zrotation Yrotation Xrotation
		JOINT RightShin
		{
			OFFSET 0.000001 -43.362209 -0.805555
			CHANNELS 3 Zrotation Yrotation Xrotation
			JOINT RightFoot
			{
				OFFSET 0.000002 -42.117393 -3.478399
				CHANNELS 3 Zrotation Yrotation Xrotation
				JOINT RightToeBase
				{
					OFFSET -0.000000 -5.079609 13.284195
					CHANNELS 3 Zrotation Yrotation Xrotation
					JOINT RightToeEnd
					{
						OFFSET 0.009532 -1.634383 6.460591
						CHANNELS 3 Zrotation Yrotation Xrotation
						End Site
						{
							OFFSET 0.000000 0.000000 0.000000
						}
					}
				}
			}
		}
	}
}
MOTION
Frames: 4
Frame Time: 0.033333
-4.142294 11.013359 -4.212012 -0.577314 1.190905 87.534958 1.788461 1.117207 -0.411120 1.428255 -0.346029 -4.241336 3.183571 -1.900537 8.567973 -1.739279 3.131008 -36.002022 1.329962 3.792465 -3.675265 -9.155265 6.208779 -3.349875 0.000077 -0.000022 0.000005 0.372803 -0.359909 -0.204881 1.325080 -4.097551 -11.189058 -0.608240 3.402913 -11.137010 12.165330 -14.507630 9.310763 -33.150723 13.034209 -82.213303 178.886719 -38.232342 179.712082 16.310558 5.665257 0.541182 -5.882100 9.861279 0.702589 -10.936857 -0.360575 7.156198 0.000003 8.774813 -0.000000 -15.717462 17.794964 5.543562 -1.844031 2.498503 -2.507277 -10.163589 4.678937 4.621105 -20.975994 -0.000004 0.000002 -21.226248 2.451692 -3.593991 0.000002 -0.000006 -0.000001 -1.362680 2.240797 -0.746323 -21.334887 0.584908 3.008322 -13.821197 -0.000002 0.000004 -23.887133 -0.249079 -0.839481 -58.540939 2.140061 -1.579540 -0.294024 1.679687 0.833255 -14.218194 0.093212 1.300580 -34.212002 -0.287564 0.967172 -20.033180 0.964535 1.212844 0.000000 0.000001 0.000000 -3.440386 0.788231 0.501656 -15.928167 -3.167308 2.999705 -6.338818 -0.000003 0.000001 -18.123415 3.648177 -4.905660 -0.000003 -0.000000 -0.000003 -7.961396 17.984276 6.134903 7.858009 -9.410699 -83.836502 -178.646912 52.348259 178.992111 -14.645502 -6.741458 0.349182 2.243539 -5.255033 -3.180155 14.282878 -0.826592 6.952497 -0.000003 -12.690592 -0.000000 14.858624 -17.202141 2.528293 1.665665 -1.955919 -2.878297 4.727794 -4.170583 4.993919 11.020513 0.000003 -0.000001 12.109031 -3.735711 -2.866780 0.000000 0.000000 0.000000 1.291984 -1.928548 -1.498088 14.800113 0.567468 3.865602 14.242554 -1.341735 -6.660648 19.631941 0.143926 -0.648242 46.329231 -0.492744 -6.711915 0.353029 -1.511148 -0.031941 20.222771 3.684305 2.316627 18.787247 0.000004 0.000001 10.751610 -0.479868 1.397904 -0.000001 -0.000000 -0.000001 3.273804 0.305946 -0.580109 21.486792 11.830369 2.266133 8.162916 0.000003 0.000000 18.399055 -3.798979 -4.940567 0.000003 -0.000001 -0.000001 -178.685165 61.919678 173.890976 -177.574524 -83.499374 -166.225449 -4.195704 -20.082497 1.839216 1.721099 -1.441298 -8.379487 0.000000 0.000000 0.000002 173.963654 -54.689781 170.736053 -177.268127 70.832840 -170.989380 17.434118 18.310314 -22.855974 -1.847754 0.600778 -12.804298 0.000000 0.000000 -0.000002 
-4.273336 11.148035 -4.303334 -0.688497 1.194488 87.584068 1.883300 1.172494 -0.521222 1.400295 -0.273810 -4.284188 3.222274 -1.794707 8.632195 -1.976145 3.327076 -36.350914 1.096103 3.893888 -3.666556 -9.234565 6.326107 -3.485317 0.000076 -0.000022 0.000003 0.364465 -0.351587 -0.215062 1.305109 -4.095178 -11.168658 -0.600819 3.412665 -11.111112 11.888827 -14.171802 9.288654 -33.275261 12.903907 -81.154053 178.821869 -38.104614 179.804169 16.986403 5.298281 0.529020 -5.882102 9.861278 0.702591 -10.936859 -0.360575 7.156198 0.000001 8.774810 -0.000001 -15.753521 17.674189 5.553370 -1.844030 2.498503 -2.507275 -10.163589 4.678940 4.621106 -20.975996 -0.000001 0.000006 -21.226250 2.451695 -3.593992 -0.000001 -0.000006 -0.000001 -1.362680 2.240796 -0.746322 -21.334892 0.584909 3.008324 -13.821197 -0.000003 0.000004 -23.887125 -0.249077 -0.839478 -58.669540 2.094468 -1.527880 -0.294025 1.679686 0.833255 -14.218192 0.093215 1.300582 -34.211998 -0.287561 0.967177 -20.033180 0.964537 1.212845 0.000000 0.000001 0.000000 -3.440386 0.788233 0.501656 -15.928171 -3.167307 2.999707 -6.338817 0.000001 0.000003 -18.123411 3.648180 -4.905657 -0.000002 -0.000000 -0.000001 -7.999260 17.906925 6.120841 8.036872 -9.292890 -83.917465 -178.694138 52.185467 179.183319 -14.391049 -6.665049 0.033471 2.243539 -5.255033 -3.180155 14.282875 -0.826594 6.952497 -0.000002 -12.690591 -0.000000 14.937297 -17.378664 2.619052 1.665664 -1.955918 -2.878297 4.727794 -4.170585 4.993919 11.020511 0.000003 0.000000 12.109029 -3.735710 -2.866778 0.000001 -0.000000 0.000000 1.291984 -1.928548 -1.498087 14.800113 0.567468 3.865605 14.242551 -1.341733 -6.660648 19.631937 0.143926 -0.648242 46.441486 -0.472355 -6.725452 0.353028 -1.511151 -0.031941 20.222767 3.684308 2.316628 18.787245 0.000004 0.000002 10.751610 -0.479866 1.397904 -0.000001 0.000001 0.000001 3.273804 0.305946 -0.580110 21.486788 11.830364 2.266134 8.162917 0.000001 0.000001 18.399054 -3.798980 -4.940567 0.000003 -0.000000 -0.000001 -178.517303 62.806316 174.103745 -177.681503 -84.721916 -165.639694 -4.258036 -19.754004 1.548492 1.747852 -1.447466 -8.166319 -0.000000 -0.000000 0.000002 173.716278 -55.723045 171.090454 -176.787292 72.164856 -170.057938 17.282942 18.808258 -23.087049 -1.861760 0.603140 -12.365479 -0.000000 0.000000 -0.000002 
-4.486536 11.309540 -4.377614 -0.732383 1.200645 87.671677 1.936544 1.219628 -0.729014 1.425783 -0.245064 -4.350108 3.210716 -1.731648 8.743086 -2.095973 3.437660 -36.587971 0.959674 4.039041 -3.631298 -9.624590 6.721072 -3.790437 0.000077 -0.000022 0.000006 0.380828 -0.367011 -0.207967 1.313568 -4.112939 -11.178425 -0.576820 3.403912 -11.086042 11.752443 -13.877189 9.450512 -33.669979 12.757874 -80.390312 178.830399 -37.911461 179.755692 17.671644 4.942436 0.609997 -5.882103 9.861279 0.702590 -10.936859 -0.360573 7.156196 0.000000 8.774815 0.000000 -15.615671 17.620043 5.647334 -1.844031 2.498502 -2.507277 -10.163591 4.678941 4.621104 -20.975998 -0.000002 0.000002 -21.226255 2.451694 -3.593995 0.000000 -0.000006 -0.000001 -1.362680 2.240798 -0.746322 -21.334896 0.584910 3.008320 -13.821198 -0.000001 0.000002 -23.887131 -0.249079 -0.839483 -58.718647 2.132795 -1.545515 -0.294024 1.679687 0.833256 -14.218194 0.093214 1.300578 -34.212006 -0.287562 0.967167 -20.033180 0.964536 1.212838 -0.000001 0.000001 -0.000000 -3.440386 0.788231 0.501656 -15.928169 -3.167305 2.999704 -6.338816 -0.000001 0.000000 -18.123415 3.648181 -4.905662 -0.000003 0.000000 -0.000002 -7.998508 17.832132 6.124730 8.221971 -9.118408 -83.855865 -178.630981 51.979645 179.338470 -14.294744 -6.509846 -0.320419 2.243540 -5.255032 -3.180156 14.282878 -0.826594 6.952496 -0.000002 -12.690588 0.000000 14.877871 -17.484823 2.674523 1.665666 -1.955918 -2.878296 4.727794 -4.170584 4.993919 11.020513 0.000003 0.000000 12.109033 -3.735710 -2.866779 0.000001 -0.000001 0.000000 1.291985 -1.928547 -1.498088 14.800114 0.567468 3.865603 14.242554 -1.341734 -6.660648 19.631939 0.143925 -0.648243 46.461441 -0.371354 -6.696366 0.353028 -1.511150 -0.031940 20.222771 3.684305 2.316627 18.787249 0.000004 -0.000000 10.751613 -0.479867 1.397902 -0.000001 0.000000 0.000000 3.273805 0.305947 -0.580111 21.486792 11.830361 2.266130 8.162918 0.000002 0.000000 18.399054 -3.798981 -4.940567 0.000003 -0.000000 -0.000001 -178.616760 63.635025 174.012756 -177.296463 -85.892860 -165.884949 -4.333541 -19.729593 1.156389 1.778506 -1.450601 -8.175511 0.000000 0.000000 0.000002 172.628479 -56.490658 172.348526 -176.422226 73.203079 -168.382660 16.878534 19.359800 -23.715664 -1.852761 0.606916 -12.259591 0.000000 0.000000 -0.000001 
-4.620424 11.452579 -4.456524 -0.725247 1.201558 87.741486 1.986786 1.245602 -0.905409 1.411943 -0.238609 -4.408011 3.238094 -1.713174 8.836596 -2.127728 3.478232 -36.770840 0.858808 4.207370 -3.611270 -10.032257 7.192326 -4.178765 0.000077 -0.000022 0.000006 0.391020 -0.376679 -0.219508 1.317553 -4.127641 -11.161596 -0.557270 3.391046 -11.071970 11.596365 -13.599872 9.608415 -34.182827 12.653177 -79.826462 178.961868 -37.644161 179.659851 18.356165 4.470417 0.632303 -5.882101 9.861278 0.702590 -10.936860 -0.360574 7.156197 0.000003 8.774812 -0.000001 -15.550497 17.574572 5.701618 -1.844031 2.498505 -2.507277 -10.163590 4.678941 4.621103 -20.975996 -0.000002 0.000003 -21.226255 2.451693 -3.593995 -0.000000 -0.000006 0.000001 -1.362680 2.240796 -0.746323 -21.334890 0.584908 3.008321 -13.821197 -0.000003 0.000003 -23.887131 -0.249078 -0.839480 -58.756657 2.209355 -1.567094 -0.294024 1.679688 0.833256 -14.218194 0.093215 1.300578 -34.211998 -0.287564 0.967171 -20.033180 0.964535 1.212842 0.000000 0.000001 -0.000001 -3.440385 0.788233 0.501655 -15.928165 -3.167306 2.999703 -6.338817 -0.000002 0.000001 -18.123417 3.648177 -4.905662 -0.000003 -0.000000 -0.000002 -7.932770 17.688494 6.119384 8.356258 -8.859405 -83.712936 -178.549835 51.717991 179.498032 -14.206722 -6.286669 -0.520900 2.243539 -5.255033 -3.180156 14.282875 -0.826592 6.952495 -0.000002 -12.690591 -0.000000 14.835264 -17.509644 2.711292 1.665665 -1.955919 -2.878298 4.727792 -4.170582 4.993918 11.020510 0.000003 -0.000000 12.109029 -3.735708 -2.866780 0.000001 -0.000000 0.000000 1.291984 -1.928545 -1.498087 14.800114 0.567468 3.865604 14.242551 -1.341736 -6.660648 19.631939 0.143926 -0.648243 46.551319 -0.296256 -6.638523 0.353028 -1.511150 -0.031939 20.222767 3.684307 2.316628 18.787245 0.000006 0.000000 10.751611 -0.479868 1.397902 -0.000001 -0.000000 -0.000001 3.273804 0.305948 -0.580111 21.486788 11.830364 2.266131 8.162916 0.000002 -0.000000 18.399048 -3.798975 -4.940567 0.000002 -0.000001 -0.000002 -178.976608 64.472054 173.620560 -176.302063 -87.109367 -166.839264 -4.359655 -19.919867 0.834046 1.801846 -1.456229 -8.116130 -0.000000 -0.000000 0.000002 171.582016 -56.937321 173.480927 -176.132141 73.913406 -166.864182 16.572515 19.863104 -24.383202 -1.848506 0.622233 -12.204533 -0.000000 0.000000 -0.000002 
